<svg width="134" height="200" viewBox="0 0 134 200" fill="none" xmlns="http://www.w3.org/2000/svg">
<g clip-path="url(#clip0_22_94)">
<path d="M33.3366 200C51.7366 200 66.67 185.067 66.67 166.667V133.333H33.3366C14.9366 133.333 0.0032959 148.267 0.0032959 166.667C0.0032959 185.067 14.9366 200 33.3366 200Z" fill="#0ACF83"/>
<path d="M0.0032959 100C0.0032959 81.6 14.9366 66.6666 33.3366 66.6666H66.67V133.333H33.3366C14.9366 133.333 0.0032959 118.4 0.0032959 100Z" fill="#A259FF"/>
<path d="M0.0032959 33.3333C0.0032959 14.9333 14.9366 0 33.3366 0H66.67V66.6667H33.3366C14.9366 66.6667 0.0032959 51.7333 0.0032959 33.3333Z" fill="#F24E1E"/>
<path d="M66.67 0H100.003C118.403 0 133.337 14.9333 133.337 33.3333C133.337 51.7333 118.403 66.6667 100.003 66.6667H66.67V0Z" fill="#FF7262"/>
<path d="M133.337 100C133.337 118.4 118.403 133.333 100.003 133.333C81.6034 133.333 66.67 118.4 66.67 100C66.67 81.6 81.6034 66.6666 100.003 66.6666C118.403 66.6666 133.337 81.6 133.337 100Z" fill="#1ABCFE"/>
</g>
<defs>
<clipPath id="clip0_22_94">
<rect width="133.34" height="200" fill="white"/>
</clipPath>
</defs>
</svg>
