<svg width="141" height="141" viewBox="0 0 141 141" fill="none" xmlns="http://www.w3.org/2000/svg">
<g clip-path="url(#clip0_22_45)">
<path d="M0.0594063 122.812C0.0594063 132.825 8.17597 140.941 18.1878 140.941H122.525C132.538 140.941 140.653 132.824 140.653 122.812V18.4755C140.653 8.46202 132.537 0.346558 122.525 0.346558H18.1883C8.17487 0.346558 0.0594063 8.46312 0.0594063 18.475V122.812V122.812Z" fill="#563D7C"/>
<path d="M58.3609 62.5364V42.6264H75.8863C77.5558 42.6264 79.165 42.7653 80.7148 43.0438C82.2646 43.3217 83.636 43.8181 84.8283 44.5337C86.02 45.2493 86.974 46.2428 87.6896 47.5142C88.4046 48.7862 88.7627 50.4156 88.7627 52.4021C88.7627 55.979 87.6896 58.5624 85.5433 60.1518C83.3976 61.7417 80.6555 62.5364 77.3169 62.5364H58.3609V62.5364ZM39.6427 28.0809V113.206H80.8938C84.7091 113.206 88.425 112.73 92.0414 111.776C95.6579 110.822 98.8767 109.351 101.698 107.364C104.52 105.377 106.765 102.814 108.434 99.6746C110.104 96.5349 110.938 92.819 110.938 88.527C110.938 83.2015 109.646 78.6514 107.064 74.8762C104.48 71.1005 100.565 68.4578 95.3196 66.9475C99.1348 65.1198 102.016 62.7747 103.964 59.9134C105.911 57.0521 106.885 53.4757 106.885 49.1832C106.885 45.2092 106.229 41.8712 104.917 39.1686C103.606 36.4666 101.758 34.3006 99.3732 32.6711C96.9891 31.0416 94.1278 29.8691 90.7893 29.1541C87.4512 28.4385 83.7552 28.0809 79.7015 28.0809H39.6427V28.0809ZM58.3609 98.6608V75.2931H78.7476C82.8012 75.2931 86.0601 76.2267 88.5244 78.0951C90.9881 79.9629 92.2205 83.0823 92.2205 87.4539C92.2205 89.6798 91.8426 91.5075 91.0875 92.9382C90.3323 94.3688 89.3191 95.5018 88.0471 96.336C86.7757 97.1708 85.305 97.7667 83.636 98.1248C81.9664 98.4818 80.2183 98.6608 78.3901 98.6608H58.3609V98.6608Z" fill="white"/>
</g>
<defs>
<clipPath id="clip0_22_45">
<rect width="140.594" height="140.594" fill="white" transform="translate(0.0594063 0.346558)"/>
</clipPath>
</defs>
</svg>
