<svg width="141" height="141" viewBox="0 0 141 141" fill="none" xmlns="http://www.w3.org/2000/svg">
<path d="M70.295 81.1643C76.3611 81.1643 81.2786 76.2468 81.2786 70.1807C81.2786 64.1147 76.3611 59.1971 70.295 59.1971C64.2289 59.1971 59.3114 64.1147 59.3114 70.1807C59.3114 76.2468 64.2289 81.1643 70.295 81.1643Z" fill="#00D8FF"/>
<path d="M70.295 95.364C57.0933 95.6833 43.9247 93.9038 31.2813 90.0919C25.4407 88.2404 19.9934 85.3238 15.2145 81.4895C13.3909 80.1797 11.8723 78.4908 10.7628 76.5388C9.65331 74.5868 8.97925 72.4178 8.78687 70.1808C8.78687 62.9185 16.7653 55.8011 30.1302 51.1441C43.1116 47.0175 56.675 45.0176 70.295 45.2217C83.7332 45.034 97.1149 46.9977 109.933 51.0386C115.557 52.8318 120.82 55.6074 125.477 59.2368C127.269 60.4856 128.765 62.1133 129.858 64.0045C130.951 65.8958 131.615 68.0044 131.803 70.1808C131.803 77.7287 122.884 85.3777 108.518 90.1314C96.1193 93.8191 83.2285 95.5838 70.295 95.364V95.364ZM70.295 50.4763C57.2646 50.3021 44.2895 52.2033 31.8568 56.1086C19.5552 60.401 14.0414 66.2707 14.0414 70.1676C14.0414 74.2447 19.9682 80.6548 32.9815 85.1053C45.077 88.7337 57.6709 90.4227 70.295 90.1095C82.6687 90.3307 95.0033 88.6565 106.87 85.1449C120.38 80.668 126.531 74.2491 126.531 70.1808C126.309 68.7847 125.801 67.4497 125.037 66.2602C124.273 65.0707 123.271 64.0525 122.094 63.2699C117.928 60.0502 113.226 57.5903 108.206 56.0032C95.944 52.1535 83.1457 50.2876 70.295 50.4763V50.4763Z" fill="#00D8FF"/>
<path d="M45.3403 124.962C43.2908 125.01 41.2654 124.512 39.4707 123.521C33.1793 119.892 31.0001 109.427 33.6406 95.5221C36.5519 82.2148 41.5962 69.4659 48.5783 57.7693C55.1277 46.0348 63.5124 35.4239 73.4144 26.3386C77.7778 22.3613 82.8114 19.1885 88.2818 16.9674C90.2604 16.0401 92.4188 15.5594 94.6039 15.5594C96.7891 15.5594 98.9475 16.0401 100.926 16.9674C107.468 20.737 109.634 32.2829 106.58 47.102C103.579 59.6873 98.6659 71.7379 92.0118 82.8338C85.6929 94.4297 77.5722 104.948 67.9533 113.996C63.4315 118.13 58.1838 121.39 52.4753 123.614C50.1899 124.462 47.7776 124.918 45.3403 124.962V124.962ZM53.1299 60.379C46.4699 71.5793 41.6352 83.7683 38.8073 96.4886C36.3777 109.295 38.7106 116.997 42.1024 118.957C45.6171 120.991 54.1492 119.062 64.5089 110.012C73.6913 101.343 81.4422 91.2745 87.4734 80.1802C93.848 69.5723 98.5611 58.0511 101.449 46.0168C104.322 32.0677 101.84 23.5268 98.3164 21.497C96.9958 20.991 95.5845 20.7645 94.1719 20.8318C92.7593 20.8991 91.376 21.2588 90.1094 21.8881C85.2401 23.8974 80.7634 26.75 76.8852 30.3147C67.4247 39.0171 59.4155 49.1754 53.1606 60.4053L53.1299 60.379Z" fill="#00D8FF"/>
<path d="M95.2365 125.02C89.2834 125.02 81.7223 121.417 73.8492 114.647C63.7738 105.479 55.2473 94.7418 48.6001 82.8515C41.7057 71.3159 36.7013 58.7515 33.7767 45.6346C32.5083 39.8638 32.2733 33.9138 33.0825 28.0609C33.2696 25.8897 33.9307 23.786 35.0193 21.8981C36.1079 20.0102 37.5973 18.3841 39.3827 17.1344C45.9157 13.3517 57.0004 17.2399 68.3135 27.2833C77.718 36.1676 85.7044 46.4417 91.9941 57.7474C98.8843 69.0136 103.941 81.3029 106.976 94.1558C108.299 100.138 108.503 106.314 107.578 112.371C107.358 114.605 106.657 116.764 105.524 118.702C104.391 120.639 102.853 122.309 101.014 123.596C99.2484 124.575 97.2544 125.066 95.2365 125.02V125.02ZM53.1473 80.2066C59.5241 91.5699 67.6689 101.846 77.2761 110.649C87.1569 119.15 94.9948 120.978 98.3646 118.996C101.879 116.953 104.471 108.615 101.8 95.1223C98.8737 82.8512 94.0234 71.1206 87.4293 60.3658C81.4272 49.5453 73.8042 39.7073 64.8251 31.1934C54.1754 21.7387 45.5379 19.6255 42.0188 21.6641C40.9219 22.5554 40.0218 23.6645 39.3753 24.9213C38.7287 26.1781 38.3498 27.5553 38.2624 28.9659C37.5638 34.1857 37.7914 39.4878 38.9346 44.6285C41.7477 57.1724 46.5473 69.1862 53.1517 80.2154L53.1473 80.2066Z" fill="#00D8FF"/>
</svg>
