<svg width="141" height="141" viewBox="0 0 141 141" fill="none" xmlns="http://www.w3.org/2000/svg">
<g clip-path="url(#clip0_22_54)">
<path d="M8.84653 18.3147H131.866V59.3286H70.3564V66.165H43.0197V59.3242H8.84653V18.3147ZM15.6829 52.4922H29.3513V31.9831H36.1833V52.4878H43.0197V25.1511H15.6829V52.4922ZM49.8561 25.1511V59.3286H63.5244V52.4922H77.1928V25.1511H49.8561ZM63.5244 31.9875H70.3564V45.6602H63.52L63.5244 31.9875ZM84.0292 25.1511V52.4922H97.6976V31.9831H104.534V52.4878H111.37V31.9831H118.207V52.4878H125.043V25.1511H84.0292Z" fill="#CB3837"/>
<path fill-rule="evenodd" clip-rule="evenodd" d="M134.75 89.5891L140.653 89.6216C140.653 89.6216 129.678 104.494 128.782 105.706C128.491 106.098 128.049 106.521 127.825 107.046C127.258 108.365 126.676 111.258 126.676 111.258L121.275 111.285C121.275 111.285 122.115 108.269 122.08 106.663C122.05 105.26 121.334 103.858 120.932 102.451C120.525 101.026 119.974 98.2379 119.974 98.2379H125.527L126.293 101.302L134.75 89.5891Z" fill="#1A1918"/>
<path fill-rule="evenodd" clip-rule="evenodd" d="M123.572 92.7256C124.662 93.3823 125.33 97.0052 125.33 97.0052C125.33 97.0052 119.63 97.0893 116.528 97.0893H113.847L110.592 111.258H105.614C105.614 111.258 108.712 95.8601 109.443 93.0684C109.68 92.1645 111.067 92.3196 113.409 92.3196H117.148C119.563 92.3196 122.385 92.0112 123.572 92.7256Z" fill="#1A1918"/>
<path fill-rule="evenodd" clip-rule="evenodd" d="M100.396 99.6263C100.396 99.6263 100.551 98.7169 99.8695 97.6636C99.2872 96.7657 98.7495 96.5568 97.2175 96.5089C92.8921 96.373 92.9762 99.5784 92.9762 99.5784L100.396 99.6263ZM105.087 95.9555C105.721 98.242 104.513 103.615 104.513 103.615C104.513 103.615 98.2033 103.509 94.7474 103.615C93.6728 103.647 92.3867 103.498 92.0667 103.998C91.6167 104.698 92.2312 105.777 92.7521 106.232C93.3515 106.757 94.5192 106.816 94.9389 106.87C97.7439 107.226 103.614 106.962 103.614 106.962L102.598 111.465C102.598 111.465 94.3015 111.881 90.1519 110.89C89.3326 110.695 88.5645 110.301 88.0456 109.742C87.9039 109.589 87.781 109.38 87.6471 109.2C87.5401 109.056 87.2282 108.584 87.0882 108.21C86.1404 105.684 87.1992 100.846 88.2371 98.2533C88.3576 97.9529 88.5089 97.5718 88.6681 97.248C88.8671 96.8442 89.0355 96.3884 89.1945 96.147C89.3014 95.9805 89.434 95.8733 89.5451 95.7163C89.6732 95.5305 89.8223 95.3505 89.9604 95.1899C90.3434 94.7456 90.7781 94.4315 91.3009 94.0412C93.0296 92.7465 96.1584 91.7414 99.9172 92.1262C101.332 92.2717 103.47 92.7771 104.513 94.2325C104.792 94.6211 104.93 95.3927 105.087 95.9557V95.9555Z" fill="#1A1918"/>
<path fill-rule="evenodd" clip-rule="evenodd" d="M82.2535 92.3019L87.0808 92.2736C87.0808 92.2736 84.3905 105.035 83.0194 111.258H77.4663C73.5854 111.258 70.1293 111.739 68.6587 108.961C67.2323 106.263 68.5937 101.826 69.233 98.8122C69.685 96.6791 70.6369 92.3193 70.6369 92.3193L75.6383 92.2736C75.6383 92.2736 74.2251 99.0613 73.637 102.451C73.4264 103.665 72.9921 104.808 73.4457 105.705C73.8764 106.56 74.4797 106.621 76.3176 106.663C76.8999 106.677 78.807 106.663 78.807 106.663L82.2535 92.3019Z" fill="#1A1918"/>
<path fill-rule="evenodd" clip-rule="evenodd" d="M59.6593 101.493C60.1648 99.6972 60.902 97.7498 60.8083 96.1316C60.7068 94.4009 59.2556 92.8251 58.3191 92.4938C55.4988 91.4981 52.8583 92.8901 51.8089 94.0255C50.4513 95.4961 49.9916 97.2138 49.511 99.5787C49.1533 101.334 48.8601 103.188 49.511 104.557C50.6635 106.977 54.2578 106.449 58.1276 106.472C58.7019 104.932 59.1768 103.203 59.6593 101.493ZM66.3611 94.4086C66.9123 98.4179 64.7969 102.843 63.3396 106.692C64.8255 106.826 66.1277 106.671 66.2214 106.782C66.319 106.925 65.2254 111.375 64.8443 111.387C63.665 111.417 59.7572 111.45 58.1276 111.45C52.8101 111.45 47.8357 111.796 45.2989 109.152C44.2688 108.078 43.5564 106.236 43.3838 104.94C43.0967 102.776 43.4566 100.394 43.9584 98.4297C44.4123 96.6563 44.9941 94.9829 45.8732 93.4509C48.1077 89.5508 51.9946 86.6557 58.5104 87.324C59.7743 87.4541 61.5893 88.0075 62.7231 88.6642C62.8013 88.7102 63.0755 88.9285 63.1384 88.9668C64.6704 89.9416 66.0662 92.2678 66.3611 94.4086Z" fill="#1A1918"/>
<path fill-rule="evenodd" clip-rule="evenodd" d="M42.8343 92.3251C42.5127 93.7899 42.1911 95.4503 41.8521 96.8977H36.4908C36.9061 95.2932 37.2241 93.6981 37.6397 92.3022C39.3552 92.3022 40.9504 92.3251 42.8346 92.3251" fill="#1A1918"/>
<path fill-rule="evenodd" clip-rule="evenodd" d="M36.2992 98.2382H41.4693C40.7933 101.98 39.4547 108.015 38.4056 112.216C37.7488 114.845 37.3104 116.763 35.5334 118.151C35.3744 118.276 35.2826 118.217 35.1503 118.343C34.8229 118.655 33.3083 119.017 32.4699 119.109C31.1066 119.257 29.5652 119.128 27.8896 119.094C28.3281 117.491 28.8241 115.567 29.2149 114.13C33.2992 114.625 33.4025 110.764 34.1932 107.046C34.6507 104.898 36.0371 99.0997 36.2992 98.2382Z" fill="#1A1918"/>
<path fill-rule="evenodd" clip-rule="evenodd" d="M24.2361 108.003L24.1253 108.29C22.2376 111.967 18.8922 114.222 14.1206 114.322C11.89 114.368 9.76464 113.795 8.37622 113.173C5.38001 111.827 2.85974 109.33 1.48345 106.663C-0.490877 102.839 -0.846939 97.5199 3.25824 93.547C3.32163 93.547 2.76025 94.4085 2.82364 94.4085L2.71065 94.7761C-0.247532 104.038 8.86649 111.975 17.7262 111.067C19.8554 110.849 22.5705 109.683 24.2361 108.003Z" fill="#21609B"/>
<path fill-rule="evenodd" clip-rule="evenodd" d="M18.8748 104.174C21.1038 104.189 23.432 103.147 24.8107 101.685C23.6045 104.746 20.1119 106.714 15.4286 106.089C11.5069 105.564 7.77131 101.618 7.38658 97.6635C7.10521 94.7858 8.10808 93.0683 9.76079 90.9849C9.18646 92.0745 8.97178 92.9148 8.91831 93.4508C8.29052 99.6759 13.8911 104.141 18.8748 104.174Z" fill="#21609B"/>
<path fill-rule="evenodd" clip-rule="evenodd" d="M24.5867 96.4418C24.2403 97.2366 22.2453 98.7375 21.3642 98.9252C17.8755 99.6684 15.6413 98.0141 14.4709 96.1315C14.297 95.8504 13.9754 95.0826 13.9178 94.8872C13.4639 93.3439 13.6725 91.0097 15.0265 89.8015C14.6186 90.9504 14.5591 92.2849 14.7738 93.1524C14.9038 93.6769 15.3001 94.5926 15.6967 95.1686C16.4182 96.2178 16.876 96.4727 17.8028 97.03C18.2203 97.2807 18.6681 97.4819 18.8616 97.537C19.7404 97.7958 21.596 98.4774 24.587 96.4418" fill="#21609B"/>
</g>
<defs>
<clipPath id="clip0_22_54">
<rect width="140.594" height="140.594" fill="white" transform="translate(0.0594025 0.0594482)"/>
</clipPath>
</defs>
</svg>
