<svg width="141" height="141" viewBox="0 0 141 141" fill="none" xmlns="http://www.w3.org/2000/svg">
<path d="M25.9902 119.569L16.1179 8.84644H124.595L114.709 119.551L70.2906 131.866L25.9902 119.569Z" fill="#E44F26"/>
<path d="M70.3564 122.455L106.252 112.504L114.696 17.9016H70.3564V122.455Z" fill="#F1662A"/>
<path d="M70.3564 58.9638H52.3868L51.1478 45.0582H70.3564V31.4777H36.3063L36.6314 35.1243L39.9662 72.5443H70.3564V58.9638V58.9638Z" fill="#EBEBEB"/>
<path d="M70.3565 94.231L70.295 94.2486L55.1723 90.1669L54.2057 79.3368H40.5725L42.4749 100.654L70.295 108.378L70.3565 108.361V94.231Z" fill="#EBEBEB"/>
<path d="M70.3082 58.9639V72.5444H87.0301L85.4572 90.1582L70.3082 94.2442V108.374L98.1502 100.654L98.3523 98.361L101.542 62.6105L101.876 58.9639H70.3082V58.9639Z" fill="white"/>
<path d="M70.3082 31.4777V45.0582H103.111L103.383 42.009L104.002 35.1243L104.328 31.4777H70.3082V31.4777Z" fill="white"/>
</svg>
