<svg width="141" height="141" viewBox="0 0 141 141" fill="none" xmlns="http://www.w3.org/2000/svg">
<path fill-rule="evenodd" clip-rule="evenodd" d="M70.4554 8.84656C82.6209 8.84656 94.5132 12.4541 104.628 19.2128C114.744 25.9716 122.628 35.5782 127.283 46.8176C131.939 58.0571 133.157 70.4247 130.783 82.3564C128.41 94.2882 122.552 105.248 113.949 113.851C105.347 122.453 94.3872 128.311 82.4554 130.684C70.5237 133.058 58.1561 131.84 46.9166 127.184C35.6771 122.529 26.0706 114.645 19.3118 104.53C12.553 94.4143 8.94553 82.522 8.94553 70.3565C8.94553 54.043 15.426 38.3977 26.9614 26.8624C38.4967 15.327 54.142 8.84656 70.4554 8.84656Z" fill="#CC6699"/>
<path d="M109.04 35.1728C106.254 24.2504 88.1395 20.6741 70.9958 26.746C60.2593 30.3537 50.3398 36.0436 41.805 43.4898C32.3632 52.3209 30.8562 60.0096 31.4757 63.2213C33.6725 74.5567 49.195 81.9643 55.5788 87.4606V87.4914C53.6984 88.4184 39.9202 95.3998 36.6865 102.517C33.2859 110.039 37.2269 115.434 39.8411 116.159C43.7659 117.104 47.8881 116.797 51.6293 115.28C55.3706 113.763 58.543 111.113 60.7017 107.702C62.4857 104.938 63.6019 101.797 63.9618 98.5267C64.3218 95.2568 63.9156 91.948 62.7755 88.8622C65.8504 88.0808 69.0468 87.8974 72.1909 88.3218C82.9815 89.5827 85.0992 96.3181 84.695 99.1387C84.5048 100.143 84.1008 101.094 83.5102 101.928C82.9196 102.762 82.1564 103.459 81.2724 103.972C80.5167 104.442 80.2838 104.6 80.3497 104.951C80.442 105.457 80.7891 105.439 81.4349 105.329C83.0565 104.819 84.4853 103.829 85.5331 102.49C86.5809 101.151 87.1986 99.5262 87.3047 97.8294C87.564 91.2391 81.2328 83.8315 70.0205 84.0205C66.7639 83.9275 63.5144 84.3728 60.4029 85.3385C60.2472 85.1606 60.089 84.9849 59.9284 84.8113C52.9954 77.4169 40.1838 72.1842 40.7242 62.2416C40.9219 58.6257 42.1784 49.1092 65.3281 37.5629C84.3083 28.1036 99.5013 30.709 102.129 36.4777C105.881 44.72 94.0093 60.0316 74.2998 62.2416C72.1214 62.6838 69.8713 62.6299 67.7165 62.0838C65.5618 61.5377 63.5577 60.5134 61.8528 59.087C60.8159 57.9447 60.6622 57.8963 60.2755 58.1072C59.6473 58.4543 60.0471 59.4648 60.2755 60.0624C61.0302 61.4225 62.0489 62.6182 63.2719 63.5794C64.4949 64.5406 65.8975 65.2479 67.3975 65.6598C75.1468 67.3436 83.2295 66.5442 90.4989 63.3751C102.454 58.7663 111.777 45.9151 109.04 35.1728ZM58.2325 90.8437C59.1052 93.8519 59.0608 97.0521 58.1051 100.035C58.0026 100.345 57.8898 100.653 57.7668 100.958C57.6438 101.262 57.5105 101.555 57.367 101.836C56.6276 103.349 55.6698 104.745 54.5244 105.979C50.9524 109.877 45.9569 111.353 43.8172 110.109C41.5062 108.769 42.6617 103.273 46.8049 98.8927C49.9884 95.7447 53.6587 93.1306 57.6745 91.1512L58.2325 90.8437Z" fill="white"/>
</svg>
