<svg width="141" height="127" viewBox="0 0 141 127" fill="none" xmlns="http://www.w3.org/2000/svg">
<g clip-path="url(#clip0_22_56)">
<path d="M115.655 41.3344C114.158 40.8211 112.649 40.3455 111.129 39.9082C111.385 38.8648 111.62 37.834 111.828 36.8213C115.254 20.1917 113.015 6.79462 105.365 2.38365C98.031 -1.845 86.0365 2.56433 73.9228 13.1068C72.7289 14.1477 71.5616 15.2186 70.4218 16.3184C69.6588 15.587 68.8823 14.8699 68.0927 14.1673C55.3969 2.89493 42.6715 -1.85598 35.0302 2.56762C27.7026 6.80945 25.5328 19.4037 28.617 35.1639C28.9238 36.7248 29.2703 38.2776 29.656 39.8209C27.8547 40.3327 26.1166 40.8775 24.4531 41.4574C9.56832 46.6471 0.0626621 54.7798 0.0626621 63.2157C0.0626621 71.9284 10.2674 80.6674 25.7706 85.9664C27.0275 86.3942 28.2948 86.7906 29.5715 87.1553C29.1568 88.8175 28.7888 90.4909 28.4676 92.1737C25.5273 107.66 27.8234 119.957 35.1313 124.172C42.6792 128.525 55.3475 124.051 67.6825 113.268C68.6828 112.391 69.661 111.49 70.6162 110.564C71.8505 111.755 73.1178 112.912 74.4165 114.032C86.3654 124.314 98.1661 128.465 105.467 124.239C113.008 119.873 115.459 106.664 112.277 90.5921C112.026 89.333 111.745 88.0801 111.434 86.8346C112.323 86.571 113.196 86.2997 114.048 86.0174C130.165 80.6778 140.651 72.0448 140.651 63.2157C140.651 54.7491 130.839 46.5614 115.655 41.3344V41.3344ZM112.159 80.317C111.39 80.5713 110.602 80.8168 109.798 81.0556C108.018 75.4228 105.617 69.4335 102.679 63.2448C105.483 57.2039 107.791 51.2909 109.521 45.6948C110.959 46.1111 112.355 46.5499 113.7 47.0129C126.71 51.4919 134.646 58.1133 134.646 63.2157C134.646 68.6503 126.075 75.7056 112.159 80.317V80.317ZM106.385 91.7585C107.792 98.8648 107.992 105.29 107.061 110.313C106.224 114.827 104.54 117.836 102.457 119.041C98.0272 121.606 88.5522 118.273 78.3338 109.479C77.1258 108.438 75.947 107.363 74.7987 106.256C78.7605 101.923 82.7195 96.8867 86.5835 91.2928C93.38 90.6898 99.801 89.7035 105.624 88.3575C105.911 89.5146 106.165 90.6492 106.385 91.7585V91.7585ZM47.9924 118.598C43.6638 120.127 40.2161 120.171 38.132 118.969C33.6974 116.411 31.8538 106.538 34.3685 93.294C34.6674 91.729 35.0097 90.1726 35.3949 88.6266C41.1535 89.9006 47.5278 90.8167 54.3403 91.3691C58.2307 96.8428 62.3039 101.874 66.409 106.279C65.5366 107.123 64.6435 107.946 63.7307 108.746C58.2757 113.514 52.8098 116.897 47.9924 118.598V118.598ZM27.7136 80.2835C20.8583 77.9402 15.1968 74.895 11.3163 71.572C7.82909 68.5861 6.06898 65.6211 6.06898 63.2157C6.06898 58.0963 13.7009 51.5666 26.4302 47.1287C27.975 46.5905 29.5918 46.0826 31.2695 45.6059C33.0291 51.3283 35.3367 57.3115 38.1216 63.3618C35.3004 69.5016 32.9599 75.5804 31.1833 81.3703C30.018 81.0365 28.8611 80.6741 27.7136 80.2835V80.2835ZM34.5113 34.0101C31.8692 20.5075 33.6238 10.322 38.0397 7.76556C42.7429 5.04275 53.1431 8.92486 64.1052 18.6584C64.82 19.2946 65.5233 19.9436 66.2146 20.6053C62.1298 24.9915 58.0939 29.9852 54.2382 35.4264C47.6261 36.0393 41.2969 37.0234 35.4778 38.3419C35.1193 36.9065 34.797 35.4623 34.5113 34.0106V34.0101ZM95.155 48.9849C93.7805 46.6108 92.3551 44.2666 90.8796 41.9539C95.3653 42.5212 99.6631 43.2741 103.699 44.1945C102.488 48.0783 100.977 52.1383 99.1996 56.3011C97.9003 53.8357 96.5518 51.3965 95.155 48.9849V48.9849ZM70.4245 24.8976C73.1946 27.8988 75.969 31.2494 78.6979 34.8849C73.1622 34.6235 67.6173 34.6224 62.0815 34.8816C64.8131 31.2796 67.6111 27.9334 70.4245 24.8976ZM45.5354 49.0261C44.1561 51.4183 42.8327 53.8422 41.5665 56.2961C39.818 52.1482 38.3215 48.0695 37.0995 44.1308C41.1107 43.2334 45.3882 42.4997 49.8453 41.9429C48.3535 44.2697 46.9164 46.6313 45.5354 49.0256V49.0261ZM49.9733 84.9158C45.3685 84.4018 41.0267 83.706 37.0166 82.8328C38.2577 78.8238 39.7872 74.6583 41.5737 70.4214C42.8449 72.8771 44.1737 75.3026 45.559 77.6958C46.9836 80.1561 48.4587 82.5659 49.9733 84.9158ZM70.5904 101.957C67.7435 98.8857 64.9042 95.488 62.1315 91.8337C64.8235 91.9392 67.5677 91.993 70.357 91.993C73.2226 91.993 76.0552 91.9287 78.8434 91.8046C76.1058 95.5247 73.3418 98.9274 70.5904 101.957ZM99.2562 70.205C101.135 74.4886 102.719 78.6321 103.977 82.5725C99.9009 83.5028 95.4999 84.2518 90.8626 84.8081C92.3486 82.4525 93.7875 80.0675 95.1786 77.6546C96.5929 75.202 97.9524 72.7182 99.2562 70.205V70.205ZM89.9763 74.6539C87.8467 78.3534 85.5973 81.9826 83.2318 85.5358C78.947 85.8393 74.6526 85.99 70.357 85.9878C65.9817 85.9878 61.7262 85.8516 57.6282 85.5858C55.201 82.0408 52.9088 78.4052 50.7564 74.6869H50.757C48.6147 70.9882 46.6138 67.2096 44.7583 63.359C46.609 59.5076 48.6039 55.7272 50.7388 52.0257L50.7383 52.0263C52.8724 48.3239 55.1463 44.7038 57.5552 41.174C61.7361 40.8577 66.0235 40.693 70.3564 40.693H70.357C74.7098 40.693 79.0027 40.8594 83.1824 41.1779C85.567 44.7024 87.8264 48.31 89.9565 51.9939C92.0985 55.6872 94.1198 59.4492 96.0172 63.2739C94.1393 67.1378 92.1244 70.9335 89.9763 74.6539V74.6539ZM102.366 7.58653C107.073 10.3016 108.904 21.2505 105.946 35.6087C105.757 36.5247 105.545 37.4578 105.315 38.404C99.4814 37.0574 93.1477 36.0563 86.5165 35.4341C82.6536 29.933 78.6506 24.9317 74.6323 20.602C75.6854 19.5868 76.7636 18.598 77.8659 17.6364C88.2453 8.60415 97.9459 5.03781 102.366 7.58653V7.58653ZM70.357 50.6616C77.2903 50.6616 82.9111 56.2824 82.9111 63.2157C82.9111 70.149 77.2903 75.7698 70.357 75.7698C63.4237 75.7698 57.8029 70.149 57.8029 63.2157C57.8029 56.2824 63.4237 50.6616 70.357 50.6616V50.6616Z" fill="#00D8FF"/>
</g>
<defs>
<clipPath id="clip0_22_56">
<rect width="140.594" height="125.212" fill="white" transform="translate(0.0594063 0.792114)"/>
</clipPath>
</defs>
</svg>
