<svg width="141" height="141" viewBox="0 0 141 141" fill="none" xmlns="http://www.w3.org/2000/svg">
<path d="M25.9902 119.569L16.1223 8.84656H124.591L114.709 119.551L70.2906 131.866L25.9902 119.569Z" fill="#1572B6"/>
<path d="M70.3564 122.455L106.252 112.504L114.696 17.9017H70.3564V122.455Z" fill="#33A9DC"/>
<path d="M70.3564 58.0149H88.3261L89.5651 44.1093H70.3564V30.5288H104.407L104.081 34.1711L100.747 71.5955H70.3564V58.0149Z" fill="white"/>
<path d="M70.4399 93.2821L70.3784 93.2997L55.2557 89.2137L54.2891 78.3835H40.6559L42.5583 99.7055L70.374 107.429L70.4399 107.412V93.2821Z" fill="#EBEBEB"/>
<path d="M87.1706 71.0199L85.5362 89.2049L70.3915 93.2909V107.421L98.2292 99.7055L98.4357 97.4121L100.795 71.0199H87.1706Z" fill="white"/>
<path d="M70.4048 30.5288V44.1093H37.6024L37.33 41.0558L36.7105 34.1711L36.3854 30.5288H70.4048Z" fill="#EBEBEB"/>
<path d="M70.3565 58.015V71.5955H55.4228L55.1504 68.542L54.5353 61.6573L54.2101 58.015H70.3565Z" fill="#EBEBEB"/>
</svg>
