<svg width="200" height="200" viewBox="0 0 200 200" fill="none" xmlns="http://www.w3.org/2000/svg">
<path d="M19.8063 21.9812H180.219V178.019H19.8063V21.9812Z" fill="#1C0A00"/>
<path d="M19.8062 21.9813H180.219V178.019H19.8062V21.9813ZM12.5 185.312H187.5V14.6875H12.5V185.312ZM127.125 75.5C127.125 74.9187 127.344 74.625 128 74.625H139.45C140.031 74.625 140.325 74.8437 140.325 75.5V133.031C140.325 133.612 140.181 133.906 139.45 133.906H128.156C127.425 133.906 127.206 133.544 127.206 132.956V75.5H127.131H127.125ZM126.325 58.95C126.325 56.9775 127.109 55.0857 128.503 53.6909C129.898 52.2961 131.79 51.5125 133.763 51.5125C135.735 51.5125 137.627 52.2961 139.022 53.6909C140.416 55.0857 141.2 56.9775 141.2 58.95C141.272 59.9577 141.124 60.9689 140.767 61.9138C140.409 62.8586 139.85 63.7144 139.129 64.4219C138.408 65.1294 137.542 65.6716 136.59 66.011C135.639 66.3504 134.625 66.4789 133.619 66.3875C132.633 66.4493 131.646 66.2981 130.724 65.944C129.801 65.5899 128.967 65.0412 128.276 64.3355C127.585 63.6297 127.054 62.7833 126.719 61.854C126.385 60.9247 126.255 59.9342 126.338 58.95H126.325ZM93.5125 99.4938C91.4688 91.3688 86.6375 73.7563 84.8375 65.225H84.6937C83.1625 73.7563 79.3 88.1937 76.2375 99.4938H93.5125ZM73.2437 111.306L67.4813 133.181C67.3375 133.762 67.1187 133.912 66.3875 133.912H55.6813C54.95 133.912 54.8062 133.694 54.95 132.819L75.6562 60.3188C76.1602 58.3421 76.406 56.3085 76.3875 54.2687C76.3875 53.7562 76.6062 53.5375 76.9688 53.5375H92.2812C92.7938 53.5375 93.0125 53.6812 93.1562 54.2687L116.344 132.944C116.487 133.525 116.344 133.894 115.762 133.894H103.656C103.075 133.894 102.706 133.75 102.562 133.269L96.5813 111.319H73.25L73.2437 111.306Z" fill="#FF7F18"/>
</svg>
