<svg width="200" height="200" viewBox="0 0 200 200" fill="none" xmlns="http://www.w3.org/2000/svg">
<path d="M19.7937 21.9812H180.206V178.019H19.7937V21.9812Z" fill="#0C0824"/>
<path d="M19.7938 21.9813H180.206V178.019H19.7938V21.9813ZM12.5 185.312H187.5V14.6875H12.5V185.312ZM130.481 84.6875C124.719 84.6875 122.75 87.6062 122.75 90.0125C122.75 92.6375 124.062 94.4625 131.794 98.4688C143.244 104.013 146.794 109.331 146.794 117.138C146.794 128.806 137.9 135.075 125.869 135.075C120.705 135.266 115.573 134.194 110.919 131.95C110.406 131.731 110.337 131.369 110.337 130.781V120.05C110.337 119.319 110.7 119.1 111.213 119.469C115.584 122.28 120.672 123.772 125.869 123.769C131.631 123.769 134.037 121.362 134.037 118.081C134.037 115.456 132.363 113.125 124.994 109.331C114.638 104.375 110.337 99.3313 110.337 90.9563C110.337 81.55 117.7 73.75 130.463 73.75C134.905 73.5592 139.341 74.254 143.512 75.7938C143.753 75.9497 143.947 76.1668 144.076 76.4227C144.204 76.6787 144.262 76.9642 144.244 77.25V87.25C144.244 87.8313 143.881 88.2 143.15 87.9812C139.295 85.7619 134.91 84.628 130.463 84.7L130.481 84.6875ZM67.7688 93.3625C69.4438 93.5062 70.7563 93.5062 73.675 93.5062C82.2063 93.5062 90.225 90.5188 90.225 78.925C90.225 69.6625 84.4625 65 74.7688 65C71.85 65 69.0813 65.1438 67.7688 65.2188V93.3625ZM54.7875 54.6125C54.7875 54.1 55.8062 53.7375 56.3937 53.7375C62.6612 53.4814 68.9335 53.3605 75.2062 53.375C95.4062 53.375 103.281 64.4562 103.281 78.6062C103.281 97.125 89.8625 105.075 73.3875 105.075C70.6187 105.075 69.6687 104.931 67.7 104.931V132.931C67.7 133.512 67.4813 133.806 66.825 133.806H55.6687C55.0875 133.806 54.7938 133.587 54.7938 132.931V54.6437L54.7875 54.6125Z" fill="#31C5F0"/>
</svg>
